<svg xmlns="http://www.w3.org/2000/svg" viewBox="0 0 1400 900" font-family="-apple-system, Segoe UI, Roboto, sans-serif">
  <!-- Background -->
  <rect width="1400" height="900" fill="#f7f8fa"/>

  <!-- Top nav bar -->
  <rect x="0" y="0" width="1400" height="56" fill="#1e293b"/>
  <text x="24" y="35" font-size="16" font-weight="600" fill="#ffffff">Value Truck · LTL Tool</text>
  <text x="1280" y="35" font-size="13" fill="#94a3b8">joshua.davis@valuetruck.com</text>

  <!-- Sub-tabs -->
  <rect x="0" y="56" width="1400" height="48" fill="#ffffff"/>
  <line x1="0" y1="104" x2="1400" y2="104" stroke="#e2e8f0" stroke-width="1"/>
  <text x="24" y="85" font-size="14" fill="#64748b">Search</text>
  <text x="100" y="85" font-size="14" fill="#64748b">Billing</text>
  <text x="180" y="85" font-size="14" fill="#64748b">Exceptions</text>
  <text x="285" y="85" font-size="14" font-weight="700" fill="#0f172a">Consolidate</text>
  <rect x="270" y="98" width="110" height="3" fill="#2563eb"/>

  <!-- Corridor banner -->
  <rect x="24" y="128" width="1352" height="60" rx="8" fill="#eff6ff" stroke="#bfdbfe" stroke-width="1"/>
  <text x="44" y="155" font-size="15" font-weight="600" fill="#1e40af">Laredo → Dallas pilot corridor</text>
  <text x="44" y="175" font-size="12" fill="#475569">Origin within 150 mi of Laredo yard · Destination within 250 mi of Dallas yard · US-side only · Read-only from Alvys</text>
  <rect x="1250" y="146" width="110" height="26" rx="13" fill="#dbeafe"/>
  <text x="1305" y="163" font-size="11" font-weight="600" fill="#1e40af" text-anchor="middle">Phase 1 · Pilot</text>

  <!-- Filter row -->
  <rect x="24" y="204" width="1352" height="48" rx="6" fill="#ffffff" stroke="#e2e8f0"/>
  <text x="44" y="234" font-size="13" fill="#475569">Filters:</text>
  <rect x="100" y="215" width="130" height="26" rx="13" fill="#f1f5f9" stroke="#cbd5e1"/>
  <text x="115" y="232" font-size="12" fill="#334155">Pickup this week</text>
  <rect x="240" y="215" width="120" height="26" rx="13" fill="#f1f5f9" stroke="#cbd5e1"/>
  <text x="255" y="232" font-size="12" fill="#334155">All customers</text>
  <rect x="370" y="215" width="150" height="26" rx="13" fill="#f1f5f9" stroke="#cbd5e1"/>
  <text x="385" y="232" font-size="12" fill="#334155">Min 2 candidates</text>
  <text x="1240" y="234" font-size="12" fill="#64748b">14 candidates found · scanned 187 loads</text>

  <!-- Table header -->
  <rect x="24" y="272" width="1352" height="40" fill="#f1f5f9" stroke="#e2e8f0"/>
  <text x="44" y="297" font-size="12" font-weight="600" fill="#334155">Load</text>
  <text x="140" y="297" font-size="12" font-weight="600" fill="#334155">Customer</text>
  <text x="290" y="297" font-size="12" font-weight="600" fill="#334155">Origin (near Laredo)</text>
  <text x="490" y="297" font-size="12" font-weight="600" fill="#334155">Destination (near Dallas)</text>
  <text x="700" y="297" font-size="12" font-weight="600" fill="#334155">Pickup</text>
  <text x="810" y="297" font-size="12" font-weight="600" fill="#334155">Weight / Pallets</text>
  <text x="960" y="297" font-size="12" font-weight="600" fill="#334155">Lane fit</text>
  <text x="1055" y="297" font-size="12" font-weight="600" fill="#334155">Timing fit</text>
  <text x="1160" y="297" font-size="12" font-weight="600" fill="#334155">Customer</text>
  <text x="1260" y="297" font-size="12" font-weight="600" fill="#334155">Action</text>

  <!-- Row 1 - selected as parent -->
  <rect x="24" y="312" width="1352" height="52" fill="#ecfdf5" stroke="#a7f3d0"/>
  <rect x="24" y="312" width="4" height="52" fill="#059669"/>
  <text x="44" y="337" font-size="13" font-weight="600" fill="#0f172a">L-100234</text>
  <text x="44" y="354" font-size="10" fill="#64748b">Parent</text>
  <text x="140" y="343" font-size="13" fill="#334155">Verdef</text>
  <text x="290" y="337" font-size="12" fill="#334155">Laredo, TX yard</text>
  <text x="290" y="354" font-size="10" fill="#94a3b8">0 mi from Laredo</text>
  <text x="490" y="337" font-size="12" fill="#334155">Goodyear, AZ</text>
  <text x="490" y="354" font-size="10" fill="#94a3b8">via Dallas 154-door</text>
  <text x="700" y="343" font-size="12" fill="#334155">Fri 07/17</text>
  <text x="810" y="337" font-size="12" fill="#334155">14,200 lb</text>
  <text x="810" y="354" font-size="10" fill="#94a3b8">6 pallets · verified</text>
  <rect x="960" y="325" width="70" height="22" rx="11" fill="#dcfce7"/>
  <text x="995" y="341" font-size="11" font-weight="600" fill="#166534" text-anchor="middle">Good</text>
  <rect x="1055" y="325" width="70" height="22" rx="11" fill="#dcfce7"/>
  <text x="1090" y="341" font-size="11" font-weight="600" fill="#166534" text-anchor="middle">Good</text>
  <rect x="1160" y="325" width="80" height="22" rx="11" fill="#dcfce7"/>
  <text x="1200" y="341" font-size="11" font-weight="600" fill="#166534" text-anchor="middle">Allowed</text>
  <text x="1260" y="343" font-size="12" font-weight="600" fill="#059669">✓ Parent</text>

  <!-- Row 2 - sibling candidate -->
  <rect x="24" y="364" width="1352" height="52" fill="#ffffff" stroke="#e2e8f0"/>
  <text x="44" y="389" font-size="13" font-weight="600" fill="#0f172a">L-100237</text>
  <text x="44" y="406" font-size="10" fill="#64748b">Sibling</text>
  <text x="140" y="395" font-size="13" fill="#334155">Verdef</text>
  <text x="290" y="389" font-size="12" fill="#334155">Nuevo Laredo (US side)</text>
  <text x="290" y="406" font-size="10" fill="#94a3b8">3 mi from Laredo</text>
  <text x="490" y="389" font-size="12" fill="#334155">Goodyear, AZ</text>
  <text x="490" y="406" font-size="10" fill="#94a3b8">same consignee as L-100234</text>
  <text x="700" y="395" font-size="12" fill="#334155">Fri 07/17</text>
  <text x="810" y="389" font-size="12" fill="#334155">6,500 lb</text>
  <text x="810" y="406" font-size="10" fill="#f59e0b">— pallets · visual verify</text>
  <rect x="960" y="377" width="70" height="22" rx="11" fill="#dcfce7"/>
  <text x="995" y="393" font-size="11" font-weight="600" fill="#166534" text-anchor="middle">Good</text>
  <rect x="1055" y="377" width="70" height="22" rx="11" fill="#dcfce7"/>
  <text x="1090" y="393" font-size="11" font-weight="600" fill="#166534" text-anchor="middle">Good</text>
  <rect x="1160" y="377" width="80" height="22" rx="11" fill="#dcfce7"/>
  <text x="1200" y="393" font-size="11" font-weight="600" fill="#166534" text-anchor="middle">Allowed</text>
  <rect x="1250" y="377" width="100" height="22" rx="4" fill="#2563eb"/>
  <text x="1300" y="393" font-size="11" font-weight="600" fill="#ffffff" text-anchor="middle">Add sibling</text>

  <!-- Row 3 - Phoenix customer, added to plan -->
  <rect x="24" y="416" width="1352" height="52" fill="#eff6ff" stroke="#bfdbfe"/>
  <rect x="24" y="416" width="4" height="52" fill="#2563eb"/>
  <text x="44" y="441" font-size="13" font-weight="600" fill="#0f172a">L-100241</text>
  <text x="44" y="458" font-size="10" fill="#64748b">Sibling · in plan</text>
  <text x="140" y="447" font-size="13" fill="#334155">Masonite</text>
  <text x="290" y="441" font-size="12" fill="#334155">Laredo, TX yard</text>
  <text x="290" y="458" font-size="10" fill="#94a3b8">0 mi from Laredo</text>
  <text x="490" y="441" font-size="12" fill="#334155">Phoenix, AZ</text>
  <text x="490" y="458" font-size="10" fill="#94a3b8">delivery split from Dallas</text>
  <text x="700" y="447" font-size="12" fill="#334155">Fri 07/17</text>
  <text x="810" y="441" font-size="12" fill="#334155">4,100 lb</text>
  <text x="810" y="458" font-size="10" fill="#94a3b8">4 pallets · verified</text>
  <rect x="960" y="429" width="70" height="22" rx="11" fill="#dcfce7"/>
  <text x="995" y="445" font-size="11" font-weight="600" fill="#166534" text-anchor="middle">Good</text>
  <rect x="1055" y="429" width="70" height="22" rx="11" fill="#fef3c7"/>
  <text x="1090" y="445" font-size="11" font-weight="600" fill="#92400e" text-anchor="middle">Tight</text>
  <rect x="1160" y="429" width="80" height="22" rx="11" fill="#fef3c7"/>
  <text x="1200" y="445" font-size="11" font-weight="600" fill="#92400e" text-anchor="middle">Notify</text>
  <text x="1260" y="447" font-size="12" font-weight="600" fill="#2563eb">✓ In plan</text>

  <!-- Row 4 - unknown customer, requires confirmation -->
  <rect x="24" y="468" width="1352" height="52" fill="#ffffff" stroke="#e2e8f0"/>
  <text x="44" y="493" font-size="13" font-weight="600" fill="#0f172a">L-100252</text>
  <text x="44" y="510" font-size="10" fill="#64748b">Candidate</text>
  <text x="140" y="499" font-size="13" fill="#334155">Ring</text>
  <text x="290" y="493" font-size="12" fill="#334155">Laredo, TX yard</text>
  <text x="290" y="510" font-size="10" fill="#94a3b8">0 mi from Laredo</text>
  <text x="490" y="493" font-size="12" fill="#334155">Fort Worth, TX</text>
  <text x="490" y="510" font-size="10" fill="#94a3b8">30 mi from Dallas</text>
  <text x="700" y="499" font-size="12" fill="#334155">Fri 07/17</text>
  <text x="810" y="493" font-size="12" fill="#334155">2,200 lb</text>
  <text x="810" y="510" font-size="10" fill="#94a3b8">2 pallets · verified</text>
  <rect x="960" y="481" width="70" height="22" rx="11" fill="#dcfce7"/>
  <text x="995" y="497" font-size="11" font-weight="600" fill="#166534" text-anchor="middle">Good</text>
  <rect x="1055" y="481" width="70" height="22" rx="11" fill="#dcfce7"/>
  <text x="1090" y="497" font-size="11" font-weight="600" fill="#166534" text-anchor="middle">Good</text>
  <rect x="1160" y="481" width="80" height="22" rx="11" fill="#fee2e2"/>
  <text x="1200" y="497" font-size="11" font-weight="600" fill="#991b1b" text-anchor="middle">Never</text>
  <text x="1260" y="499" font-size="12" fill="#94a3b8">Blocked</text>

  <!-- Row 5 -->
  <rect x="24" y="520" width="1352" height="52" fill="#ffffff" stroke="#e2e8f0"/>
  <text x="44" y="545" font-size="13" font-weight="600" fill="#0f172a">L-100261</text>
  <text x="44" y="562" font-size="10" fill="#64748b">Candidate</text>
  <text x="140" y="551" font-size="13" fill="#334155">Irving</text>
  <text x="290" y="545" font-size="12" fill="#334155">Laredo yard</text>
  <text x="290" y="562" font-size="10" fill="#94a3b8">0 mi from Laredo</text>
  <text x="490" y="545" font-size="12" fill="#334155">Denton, TX</text>
  <text x="490" y="562" font-size="10" fill="#94a3b8">45 mi from Dallas</text>
  <text x="700" y="551" font-size="12" fill="#334155">Sat 07/18</text>
  <text x="810" y="545" font-size="12" fill="#334155">— lb</text>
  <text x="810" y="562" font-size="10" fill="#f59e0b">— pallets · visual verify</text>
  <rect x="960" y="533" width="70" height="22" rx="11" fill="#dcfce7"/>
  <text x="995" y="549" font-size="11" font-weight="600" fill="#166534" text-anchor="middle">Good</text>
  <rect x="1055" y="533" width="70" height="22" rx="11" fill="#fef3c7"/>
  <text x="1090" y="549" font-size="11" font-weight="600" fill="#92400e" text-anchor="middle">Next day</text>
  <rect x="1160" y="533" width="80" height="22" rx="11" fill="#fef3c7"/>
  <text x="1200" y="549" font-size="11" font-weight="600" fill="#92400e" text-anchor="middle">Notify</text>
  <rect x="1250" y="533" width="100" height="22" rx="4" fill="#2563eb"/>
  <text x="1300" y="549" font-size="11" font-weight="600" fill="#ffffff" text-anchor="middle">Add sibling</text>

  <!-- Sidebar summary -->
  <rect x="24" y="600" width="450" height="240" rx="8" fill="#ffffff" stroke="#e2e8f0"/>
  <text x="44" y="627" font-size="14" font-weight="700" fill="#0f172a">Current plan</text>
  <text x="44" y="655" font-size="12" fill="#64748b">Parent: L-100234 (Verdef → Goodyear)</text>
  <text x="44" y="675" font-size="12" fill="#64748b">Siblings: L-100241 (Masonite → Phoenix)</text>
  <line x1="44" y1="695" x2="454" y2="695" stroke="#e2e8f0"/>
  <text x="44" y="720" font-size="12" fill="#475569">Combined revenue</text>
  <text x="440" y="720" font-size="14" font-weight="700" fill="#059669" text-anchor="end">$8,200</text>
  <text x="44" y="742" font-size="12" fill="#475569">Linehaul miles (parent only)</text>
  <text x="440" y="742" font-size="14" font-weight="700" fill="#0f172a" text-anchor="end">1,072</text>
  <text x="44" y="764" font-size="12" fill="#475569">Combined RPM</text>
  <text x="440" y="764" font-size="14" font-weight="700" fill="#059669" text-anchor="end">$7.65 / mi</text>
  <text x="44" y="786" font-size="12" fill="#475569">If sold individually</text>
  <text x="440" y="786" font-size="12" fill="#64748b" text-anchor="end">$3.83 / mi avg</text>
  <rect x="44" y="806" width="410" height="24" rx="4" fill="#eff6ff"/>
  <text x="249" y="822" font-size="11" fill="#1e40af" text-anchor="middle">Projected uplift: +$4,100 · +100% RPM (vs individual dispatch)</text>

  <!-- Action buttons -->
  <rect x="500" y="795" width="200" height="44" rx="6" fill="#2563eb"/>
  <text x="600" y="822" font-size="14" font-weight="600" fill="#ffffff" text-anchor="middle">Generate click card →</text>
  <rect x="720" y="795" width="180" height="44" rx="6" fill="#ffffff" stroke="#cbd5e1"/>
  <text x="810" y="822" font-size="14" font-weight="600" fill="#334155" text-anchor="middle">Save as audit only</text>
  <text x="920" y="822" font-size="12" fill="#94a3b8">No writes to Alvys · read-only pilot</text>

  <!-- Footer note -->
  <text x="24" y="878" font-size="11" fill="#94a3b8">Source: Live Alvys · Last refreshed 2 min ago · Corridor: Laredo → Dallas · Read-only</text>
</svg>
